G04 #@! TF.GenerationSoftware,KiCad,Pcbnew,(5.1.4-0)*
G04 #@! TF.CreationDate,2019-08-21T14:14:19+03:00*
G04 #@! TF.ProjectId,AVR_ISP_With_POGO_Pin,4156525f-4953-4505-9f57-6974685f504f,rev?*
G04 #@! TF.SameCoordinates,PX80efd00PY76109c0*
G04 #@! TF.FileFunction,Legend,Top*
G04 #@! TF.FilePolarity,Positive*
%FSLAX46Y46*%
G04 Gerber Fmt 4.6, Leading zero omitted, Abs format (unit mm)*
G04 Created by KiCad (PCBNEW (5.1.4-0)) date 2019-08-21 14:14:19*
%MOMM*%
%LPD*%
G04 APERTURE LIST*
%ADD10C,0.150000*%
%ADD11C,0.300000*%
%ADD12C,0.250000*%
G04 APERTURE END LIST*
D10*
X1452380Y21366667D02*
X452380Y21366667D01*
X452380Y21747620D01*
X500000Y21842858D01*
X547619Y21890477D01*
X642857Y21938096D01*
X785714Y21938096D01*
X880952Y21890477D01*
X928571Y21842858D01*
X976190Y21747620D01*
X976190Y21366667D01*
X452380Y22271429D02*
X1452380Y22509524D01*
X738095Y22700000D01*
X1452380Y22890477D01*
X452380Y23128572D01*
X1452380Y24080953D02*
X976190Y23747620D01*
X1452380Y23509524D02*
X452380Y23509524D01*
X452380Y23890477D01*
X500000Y23985715D01*
X547619Y24033334D01*
X642857Y24080953D01*
X785714Y24080953D01*
X880952Y24033334D01*
X928571Y23985715D01*
X976190Y23890477D01*
X976190Y23509524D01*
D11*
X5621428Y14221429D02*
X5121428Y14935715D01*
X4764285Y14221429D02*
X4764285Y15721429D01*
X5335714Y15721429D01*
X5478571Y15650000D01*
X5550000Y15578572D01*
X5621428Y15435715D01*
X5621428Y15221429D01*
X5550000Y15078572D01*
X5478571Y15007143D01*
X5335714Y14935715D01*
X4764285Y14935715D01*
X6264285Y15007143D02*
X6764285Y15007143D01*
X6978571Y14221429D02*
X6264285Y14221429D01*
X6264285Y15721429D01*
X6978571Y15721429D01*
X7550000Y14292858D02*
X7764285Y14221429D01*
X8121428Y14221429D01*
X8264285Y14292858D01*
X8335714Y14364286D01*
X8407142Y14507143D01*
X8407142Y14650000D01*
X8335714Y14792858D01*
X8264285Y14864286D01*
X8121428Y14935715D01*
X7835714Y15007143D01*
X7692857Y15078572D01*
X7621428Y15150000D01*
X7550000Y15292858D01*
X7550000Y15435715D01*
X7621428Y15578572D01*
X7692857Y15650000D01*
X7835714Y15721429D01*
X8192857Y15721429D01*
X8407142Y15650000D01*
X9050000Y15007143D02*
X9550000Y15007143D01*
X9764285Y14221429D02*
X9050000Y14221429D01*
X9050000Y15721429D01*
X9764285Y15721429D01*
X10192857Y15721429D02*
X11050000Y15721429D01*
X10621428Y14221429D02*
X10621428Y15721429D01*
D10*
X3250000Y21300000D02*
X3250000Y24000000D01*
X1750000Y21300000D02*
X1750000Y24000000D01*
X2650000Y22800000D02*
X2400000Y22800000D01*
X2400000Y22800000D02*
X2550000Y22650000D01*
X2150000Y22550000D02*
X2850000Y22550000D01*
X2500000Y22900000D02*
X2500000Y23250000D01*
X2500000Y22550000D02*
X2150000Y22900000D01*
X2150000Y22900000D02*
X2850000Y22900000D01*
X2850000Y22900000D02*
X2500000Y22550000D01*
X1800000Y26675000D02*
X2800000Y26675000D01*
X2800000Y25325000D02*
X1800000Y25325000D01*
X7400000Y19000000D02*
G75*
G03X7400000Y16800000I0J-1100000D01*
G01*
X8200000Y16800000D02*
G75*
G03X8200000Y19000000I0J1100000D01*
G01*
X8200000Y16800000D02*
X7400000Y16800000D01*
X7400000Y19000000D02*
X8200000Y19000000D01*
X5500000Y16300000D02*
X5500000Y19500000D01*
X10100000Y16300000D02*
X5500000Y16300000D01*
X10100000Y19500000D02*
X10100000Y16300000D01*
X5500000Y19500000D02*
X10100000Y19500000D01*
X180000Y28095500D02*
X180000Y28413000D01*
X7800000Y28095500D02*
X180000Y28095500D01*
X15420000Y28095500D02*
X7800000Y28095500D01*
X15420000Y28095500D02*
X15420000Y28413000D01*
D12*
X4042605Y1069000D02*
G75*
G03X4042605Y1069000I-179605J0D01*
G01*
D10*
X10975000Y2085000D02*
X10975000Y53000D01*
X9705000Y2085000D02*
X9705000Y53000D01*
X8435000Y2085000D02*
X8435000Y53000D01*
X7165000Y2085000D02*
X7165000Y53000D01*
X5895000Y2085000D02*
X5895000Y53000D01*
X4625000Y2085000D02*
X4625000Y53000D01*
X5712380Y20364572D02*
X4712380Y20364572D01*
X5426666Y20697905D01*
X4712380Y21031239D01*
X5712380Y21031239D01*
X5712380Y21507429D02*
X4712380Y21507429D01*
X5664761Y21936000D02*
X5712380Y22078858D01*
X5712380Y22316953D01*
X5664761Y22412191D01*
X5617142Y22459810D01*
X5521904Y22507429D01*
X5426666Y22507429D01*
X5331428Y22459810D01*
X5283809Y22412191D01*
X5236190Y22316953D01*
X5188571Y22126477D01*
X5140952Y22031239D01*
X5093333Y21983620D01*
X4998095Y21936000D01*
X4902857Y21936000D01*
X4807619Y21983620D01*
X4760000Y22031239D01*
X4712380Y22126477D01*
X4712380Y22364572D01*
X4760000Y22507429D01*
X4712380Y23126477D02*
X4712380Y23316953D01*
X4760000Y23412191D01*
X4855238Y23507429D01*
X5045714Y23555048D01*
X5379047Y23555048D01*
X5569523Y23507429D01*
X5664761Y23412191D01*
X5712380Y23316953D01*
X5712380Y23126477D01*
X5664761Y23031239D01*
X5569523Y22936000D01*
X5379047Y22888381D01*
X5045714Y22888381D01*
X4855238Y22936000D01*
X4760000Y23031239D01*
X4712380Y23126477D01*
X8204761Y20650286D02*
X8252380Y20793143D01*
X8252380Y21031239D01*
X8204761Y21126477D01*
X8157142Y21174096D01*
X8061904Y21221715D01*
X7966666Y21221715D01*
X7871428Y21174096D01*
X7823809Y21126477D01*
X7776190Y21031239D01*
X7728571Y20840762D01*
X7680952Y20745524D01*
X7633333Y20697905D01*
X7538095Y20650286D01*
X7442857Y20650286D01*
X7347619Y20697905D01*
X7300000Y20745524D01*
X7252380Y20840762D01*
X7252380Y21078858D01*
X7300000Y21221715D01*
X8157142Y22221715D02*
X8204761Y22174096D01*
X8252380Y22031239D01*
X8252380Y21936000D01*
X8204761Y21793143D01*
X8109523Y21697905D01*
X8014285Y21650286D01*
X7823809Y21602667D01*
X7680952Y21602667D01*
X7490476Y21650286D01*
X7395238Y21697905D01*
X7300000Y21793143D01*
X7252380Y21936000D01*
X7252380Y22031239D01*
X7300000Y22174096D01*
X7347619Y22221715D01*
X8252380Y22650286D02*
X7252380Y22650286D01*
X8252380Y23221715D02*
X7680952Y22793143D01*
X7252380Y23221715D02*
X7823809Y22650286D01*
X10792380Y21388381D02*
X10316190Y21055048D01*
X10792380Y20816953D02*
X9792380Y20816953D01*
X9792380Y21197905D01*
X9840000Y21293143D01*
X9887619Y21340762D01*
X9982857Y21388381D01*
X10125714Y21388381D01*
X10220952Y21340762D01*
X10268571Y21293143D01*
X10316190Y21197905D01*
X10316190Y20816953D01*
X10744761Y21769334D02*
X10792380Y21912191D01*
X10792380Y22150286D01*
X10744761Y22245524D01*
X10697142Y22293143D01*
X10601904Y22340762D01*
X10506666Y22340762D01*
X10411428Y22293143D01*
X10363809Y22245524D01*
X10316190Y22150286D01*
X10268571Y21959810D01*
X10220952Y21864572D01*
X10173333Y21816953D01*
X10078095Y21769334D01*
X9982857Y21769334D01*
X9887619Y21816953D01*
X9840000Y21864572D01*
X9792380Y21959810D01*
X9792380Y22197905D01*
X9840000Y22340762D01*
X9792380Y22626477D02*
X9792380Y23197905D01*
X10792380Y22912191D02*
X9792380Y22912191D01*
M02*
