G04 #@! TF.GenerationSoftware,KiCad,Pcbnew,(5.1.4-0)*
G04 #@! TF.CreationDate,2019-08-21T14:14:19+03:00*
G04 #@! TF.ProjectId,AVR_ISP_With_POGO_Pin,4156525f-4953-4505-9f57-6974685f504f,rev?*
G04 #@! TF.SameCoordinates,PX80efd00PY76109c0*
G04 #@! TF.FileFunction,Copper,L2,Bot*
G04 #@! TF.FilePolarity,Positive*
%FSLAX46Y46*%
G04 Gerber Fmt 4.6, Leading zero omitted, Abs format (unit mm)*
G04 Created by KiCad (PCBNEW (5.1.4-0)) date 2019-08-21 14:14:19*
%MOMM*%
%LPD*%
G04 APERTURE LIST*
%ADD10R,1.600200X1.168400*%
%ADD11R,1.300000X4.000000*%
%ADD12C,0.609600*%
%ADD13C,0.254000*%
%ADD14C,0.457200*%
%ADD15C,0.152400*%
%ADD16C,0.203200*%
G04 APERTURE END LIST*
D10*
X5300000Y17400000D03*
X5300000Y18924000D03*
D11*
X7800000Y26000000D03*
X5260000Y26000000D03*
X10340000Y26000000D03*
D12*
X14500000Y27400000D03*
X1100000Y27400000D03*
X12500000Y17700000D03*
X3400000Y17700000D03*
X3600000Y1700000D03*
X12000000Y1700000D03*
X9300000Y17900000D03*
X6600000Y23000000D03*
X4000000Y26000000D03*
X4650000Y13950000D03*
X7100000Y14600018D03*
X7100000Y19950000D03*
X10050000Y14750000D03*
D13*
X4000000Y26000000D02*
X5260000Y26000000D01*
D14*
X5300000Y14600000D02*
X4650000Y13950000D01*
X5260000Y18964000D02*
X5300000Y18924000D01*
X5260000Y26000000D02*
X5260000Y18964000D01*
X5300000Y14600000D02*
X5300000Y17400000D01*
D15*
X5300000Y18924000D02*
X5300000Y17400000D01*
D13*
X7100000Y19950000D02*
X7100000Y14600018D01*
X7800000Y22000000D02*
X10050000Y19750000D01*
X7800000Y26000000D02*
X7800000Y22000000D01*
X10050000Y19750000D02*
X10050000Y14750000D01*
D16*
G36*
X4327040Y28117206D02*
G01*
X4309611Y28059751D01*
X4303726Y28000000D01*
X4303726Y26530217D01*
X4288754Y26540221D01*
X4177814Y26586174D01*
X4060040Y26609600D01*
X3939960Y26609600D01*
X3822186Y26586174D01*
X3711246Y26540221D01*
X3611402Y26473508D01*
X3526492Y26388598D01*
X3459779Y26288754D01*
X3413826Y26177814D01*
X3390400Y26060040D01*
X3390400Y25939960D01*
X3413826Y25822186D01*
X3459779Y25711246D01*
X3526492Y25611402D01*
X3611402Y25526492D01*
X3711246Y25459779D01*
X3822186Y25413826D01*
X3939960Y25390400D01*
X4060040Y25390400D01*
X4177814Y25413826D01*
X4288754Y25459779D01*
X4303726Y25469783D01*
X4303726Y24000000D01*
X4309611Y23940249D01*
X4327040Y23882794D01*
X4355342Y23829843D01*
X4393432Y23783432D01*
X4439843Y23745342D01*
X4492794Y23717040D01*
X4550249Y23699611D01*
X4610000Y23693726D01*
X4726600Y23693726D01*
X4726601Y19814474D01*
X4499900Y19814474D01*
X4440149Y19808589D01*
X4382694Y19791160D01*
X4329743Y19762858D01*
X4283332Y19724768D01*
X4245242Y19678357D01*
X4216940Y19625406D01*
X4199511Y19567951D01*
X4193626Y19508200D01*
X4193626Y18339800D01*
X4199511Y18280049D01*
X4216940Y18222594D01*
X4245242Y18169643D01*
X4251515Y18162000D01*
X4245242Y18154357D01*
X4216940Y18101406D01*
X4199511Y18043951D01*
X4193626Y17984200D01*
X4193626Y16815800D01*
X4199511Y16756049D01*
X4216940Y16698594D01*
X4245242Y16645643D01*
X4283332Y16599232D01*
X4329743Y16561142D01*
X4382694Y16532840D01*
X4440149Y16515411D01*
X4499900Y16509526D01*
X4766601Y16509526D01*
X4766600Y14820941D01*
X4484228Y14538569D01*
X4472186Y14536174D01*
X4361246Y14490221D01*
X4261402Y14423508D01*
X4176492Y14338598D01*
X4109779Y14238754D01*
X4063826Y14127814D01*
X4040400Y14010040D01*
X4040400Y13889960D01*
X4063826Y13772186D01*
X4109779Y13661246D01*
X4176492Y13561402D01*
X4261402Y13476492D01*
X4361246Y13409779D01*
X4472186Y13363826D01*
X4589960Y13340400D01*
X4710040Y13340400D01*
X4827814Y13363826D01*
X4938754Y13409779D01*
X5038598Y13476492D01*
X5123508Y13561402D01*
X5190221Y13661246D01*
X5236174Y13772186D01*
X5238569Y13784228D01*
X5658645Y14204304D01*
X5678995Y14221005D01*
X5745651Y14302225D01*
X5795181Y14394889D01*
X5825681Y14495435D01*
X5833400Y14573805D01*
X5833400Y14573813D01*
X5835979Y14600000D01*
X5833400Y14626187D01*
X5833400Y16509526D01*
X6100100Y16509526D01*
X6159851Y16515411D01*
X6217306Y16532840D01*
X6270257Y16561142D01*
X6316668Y16599232D01*
X6354758Y16645643D01*
X6383060Y16698594D01*
X6400489Y16756049D01*
X6406374Y16815800D01*
X6406374Y17984200D01*
X6400489Y18043951D01*
X6383060Y18101406D01*
X6354758Y18154357D01*
X6348485Y18162000D01*
X6354758Y18169643D01*
X6383060Y18222594D01*
X6400489Y18280049D01*
X6406374Y18339800D01*
X6406374Y19508200D01*
X6400489Y19567951D01*
X6383060Y19625406D01*
X6354758Y19678357D01*
X6316668Y19724768D01*
X6270257Y19762858D01*
X6217306Y19791160D01*
X6159851Y19808589D01*
X6100100Y19814474D01*
X5793400Y19814474D01*
X5793400Y20010040D01*
X6490400Y20010040D01*
X6490400Y19889960D01*
X6513826Y19772186D01*
X6559779Y19661246D01*
X6626492Y19561402D01*
X6668200Y19519694D01*
X6668201Y15030325D01*
X6626492Y14988616D01*
X6559779Y14888772D01*
X6513826Y14777832D01*
X6490400Y14660058D01*
X6490400Y14539978D01*
X6513826Y14422204D01*
X6559779Y14311264D01*
X6626492Y14211420D01*
X6711402Y14126510D01*
X6811246Y14059797D01*
X6922186Y14013844D01*
X7039960Y13990418D01*
X7160040Y13990418D01*
X7277814Y14013844D01*
X7388754Y14059797D01*
X7488598Y14126510D01*
X7573508Y14211420D01*
X7640221Y14311264D01*
X7686174Y14422204D01*
X7709600Y14539978D01*
X7709600Y14660058D01*
X7686174Y14777832D01*
X7640221Y14888772D01*
X7573508Y14988616D01*
X7531800Y15030324D01*
X7531800Y19519694D01*
X7573508Y19561402D01*
X7640221Y19661246D01*
X7686174Y19772186D01*
X7709600Y19889960D01*
X7709600Y20010040D01*
X7686174Y20127814D01*
X7640221Y20238754D01*
X7573508Y20338598D01*
X7488598Y20423508D01*
X7388754Y20490221D01*
X7277814Y20536174D01*
X7160040Y20559600D01*
X7039960Y20559600D01*
X6922186Y20536174D01*
X6811246Y20490221D01*
X6711402Y20423508D01*
X6626492Y20338598D01*
X6559779Y20238754D01*
X6513826Y20127814D01*
X6490400Y20010040D01*
X5793400Y20010040D01*
X5793400Y23693726D01*
X5910000Y23693726D01*
X5969751Y23699611D01*
X6027206Y23717040D01*
X6080157Y23745342D01*
X6126568Y23783432D01*
X6164658Y23829843D01*
X6192960Y23882794D01*
X6210389Y23940249D01*
X6216274Y24000000D01*
X6216274Y28000000D01*
X6210389Y28059751D01*
X6192960Y28117206D01*
X6191360Y28120200D01*
X6868640Y28120200D01*
X6867040Y28117206D01*
X6849611Y28059751D01*
X6843726Y28000000D01*
X6843726Y24000000D01*
X6849611Y23940249D01*
X6867040Y23882794D01*
X6895342Y23829843D01*
X6933432Y23783432D01*
X6979843Y23745342D01*
X7032794Y23717040D01*
X7090249Y23699611D01*
X7150000Y23693726D01*
X7368201Y23693726D01*
X7368201Y22021220D01*
X7366111Y22000000D01*
X7374448Y21915353D01*
X7399140Y21833958D01*
X7439235Y21758944D01*
X7493195Y21693194D01*
X7509674Y21679670D01*
X9618200Y19571143D01*
X9618201Y15180307D01*
X9576492Y15138598D01*
X9509779Y15038754D01*
X9463826Y14927814D01*
X9440400Y14810040D01*
X9440400Y14689960D01*
X9463826Y14572186D01*
X9509779Y14461246D01*
X9576492Y14361402D01*
X9661402Y14276492D01*
X9761246Y14209779D01*
X9872186Y14163826D01*
X9989960Y14140400D01*
X10110040Y14140400D01*
X10227814Y14163826D01*
X10338754Y14209779D01*
X10438598Y14276492D01*
X10523508Y14361402D01*
X10590221Y14461246D01*
X10636174Y14572186D01*
X10659600Y14689960D01*
X10659600Y14810040D01*
X10636174Y14927814D01*
X10590221Y15038754D01*
X10523508Y15138598D01*
X10481800Y15180306D01*
X10481800Y19728790D01*
X10483889Y19750000D01*
X10475552Y19834648D01*
X10450861Y19916042D01*
X10410766Y19991056D01*
X10384832Y20022656D01*
X10356806Y20056806D01*
X10340328Y20070329D01*
X8231800Y22178856D01*
X8231800Y23693726D01*
X8450000Y23693726D01*
X8509751Y23699611D01*
X8567206Y23717040D01*
X8620157Y23745342D01*
X8666568Y23783432D01*
X8704658Y23829843D01*
X8732960Y23882794D01*
X8750389Y23940249D01*
X8756274Y24000000D01*
X9383725Y24000000D01*
X9389610Y23940249D01*
X9407039Y23882794D01*
X9435342Y23829843D01*
X9473431Y23783431D01*
X9519843Y23745342D01*
X9572794Y23717039D01*
X9630249Y23699610D01*
X9690000Y23693725D01*
X10263750Y23695200D01*
X10339950Y23771400D01*
X10339950Y25999950D01*
X10340050Y25999950D01*
X10340050Y23771400D01*
X10416250Y23695200D01*
X10990000Y23693725D01*
X11049751Y23699610D01*
X11107206Y23717039D01*
X11160157Y23745342D01*
X11206569Y23783431D01*
X11244658Y23829843D01*
X11272961Y23882794D01*
X11290390Y23940249D01*
X11296275Y24000000D01*
X11294800Y25923750D01*
X11218600Y25999950D01*
X10340050Y25999950D01*
X10339950Y25999950D01*
X9461400Y25999950D01*
X9385200Y25923750D01*
X9383725Y24000000D01*
X8756274Y24000000D01*
X8756274Y28000000D01*
X8750389Y28059751D01*
X8732960Y28117206D01*
X8731360Y28120200D01*
X9408639Y28120200D01*
X9407039Y28117206D01*
X9389610Y28059751D01*
X9383725Y28000000D01*
X9385200Y26076250D01*
X9461400Y26000050D01*
X10339950Y26000050D01*
X10339950Y26020050D01*
X10340050Y26020050D01*
X10340050Y26000050D01*
X11218600Y26000050D01*
X11294800Y26076250D01*
X11296275Y28000000D01*
X11290390Y28059751D01*
X11272961Y28117206D01*
X11271361Y28120200D01*
X15142682Y28120200D01*
X15220200Y28042681D01*
X15220201Y21229977D01*
X14595261Y20428937D01*
X14592630Y20425139D01*
X14589677Y20421597D01*
X14572864Y20396967D01*
X13823610Y19201103D01*
X13820411Y19195288D01*
X13816769Y19189748D01*
X13802851Y19163373D01*
X13193790Y17890378D01*
X13191268Y17884235D01*
X13188279Y17878322D01*
X13177456Y17850589D01*
X13177436Y17850540D01*
X13177431Y17850524D01*
X12716397Y16516781D01*
X12714589Y16510401D01*
X12712285Y16504178D01*
X12704672Y16475401D01*
X12704657Y16475348D01*
X12704654Y16475331D01*
X12397569Y15097971D01*
X12396496Y15091430D01*
X12394910Y15084984D01*
X12390603Y15055523D01*
X12390595Y15055475D01*
X12390594Y15055459D01*
X12241402Y13652189D01*
X12241076Y13645559D01*
X12240231Y13638984D01*
X12239287Y13609234D01*
X12239284Y13609177D01*
X12239285Y13609159D01*
X12249909Y12198022D01*
X12250335Y12191403D01*
X12250240Y12184770D01*
X12252669Y12155108D01*
X12252673Y12155046D01*
X12252676Y12155027D01*
X12420200Y10777001D01*
X12420201Y1157319D01*
X11642682Y379800D01*
X3957318Y379800D01*
X3179800Y1157318D01*
X3179800Y10704230D01*
X3342341Y11922587D01*
X3342744Y11927892D01*
X3343596Y11933121D01*
X3345546Y11962879D01*
X3382337Y13369339D01*
X3382134Y13375975D01*
X3382452Y13382596D01*
X3381021Y13412383D01*
X3258360Y14813966D01*
X3257408Y14820533D01*
X3256974Y14827150D01*
X3252189Y14856520D01*
X3252180Y14856585D01*
X3252175Y14856605D01*
X2971643Y16235273D01*
X2969956Y16241682D01*
X2968774Y16248215D01*
X2960678Y16276917D01*
X2525874Y17614986D01*
X2523471Y17621165D01*
X2521558Y17627521D01*
X2510265Y17655122D01*
X1926781Y18935368D01*
X1923689Y18941244D01*
X1921073Y18947333D01*
X1906742Y18973455D01*
X1906729Y18973479D01*
X1906724Y18973487D01*
X1182068Y20179442D01*
X1178333Y20184927D01*
X1175042Y20190685D01*
X1157830Y20215038D01*
X379800Y21228930D01*
X379800Y28042682D01*
X457319Y28120200D01*
X4328640Y28120200D01*
X4327040Y28117206D01*
X4327040Y28117206D01*
G37*
X4327040Y28117206D02*
X4309611Y28059751D01*
X4303726Y28000000D01*
X4303726Y26530217D01*
X4288754Y26540221D01*
X4177814Y26586174D01*
X4060040Y26609600D01*
X3939960Y26609600D01*
X3822186Y26586174D01*
X3711246Y26540221D01*
X3611402Y26473508D01*
X3526492Y26388598D01*
X3459779Y26288754D01*
X3413826Y26177814D01*
X3390400Y26060040D01*
X3390400Y25939960D01*
X3413826Y25822186D01*
X3459779Y25711246D01*
X3526492Y25611402D01*
X3611402Y25526492D01*
X3711246Y25459779D01*
X3822186Y25413826D01*
X3939960Y25390400D01*
X4060040Y25390400D01*
X4177814Y25413826D01*
X4288754Y25459779D01*
X4303726Y25469783D01*
X4303726Y24000000D01*
X4309611Y23940249D01*
X4327040Y23882794D01*
X4355342Y23829843D01*
X4393432Y23783432D01*
X4439843Y23745342D01*
X4492794Y23717040D01*
X4550249Y23699611D01*
X4610000Y23693726D01*
X4726600Y23693726D01*
X4726601Y19814474D01*
X4499900Y19814474D01*
X4440149Y19808589D01*
X4382694Y19791160D01*
X4329743Y19762858D01*
X4283332Y19724768D01*
X4245242Y19678357D01*
X4216940Y19625406D01*
X4199511Y19567951D01*
X4193626Y19508200D01*
X4193626Y18339800D01*
X4199511Y18280049D01*
X4216940Y18222594D01*
X4245242Y18169643D01*
X4251515Y18162000D01*
X4245242Y18154357D01*
X4216940Y18101406D01*
X4199511Y18043951D01*
X4193626Y17984200D01*
X4193626Y16815800D01*
X4199511Y16756049D01*
X4216940Y16698594D01*
X4245242Y16645643D01*
X4283332Y16599232D01*
X4329743Y16561142D01*
X4382694Y16532840D01*
X4440149Y16515411D01*
X4499900Y16509526D01*
X4766601Y16509526D01*
X4766600Y14820941D01*
X4484228Y14538569D01*
X4472186Y14536174D01*
X4361246Y14490221D01*
X4261402Y14423508D01*
X4176492Y14338598D01*
X4109779Y14238754D01*
X4063826Y14127814D01*
X4040400Y14010040D01*
X4040400Y13889960D01*
X4063826Y13772186D01*
X4109779Y13661246D01*
X4176492Y13561402D01*
X4261402Y13476492D01*
X4361246Y13409779D01*
X4472186Y13363826D01*
X4589960Y13340400D01*
X4710040Y13340400D01*
X4827814Y13363826D01*
X4938754Y13409779D01*
X5038598Y13476492D01*
X5123508Y13561402D01*
X5190221Y13661246D01*
X5236174Y13772186D01*
X5238569Y13784228D01*
X5658645Y14204304D01*
X5678995Y14221005D01*
X5745651Y14302225D01*
X5795181Y14394889D01*
X5825681Y14495435D01*
X5833400Y14573805D01*
X5833400Y14573813D01*
X5835979Y14600000D01*
X5833400Y14626187D01*
X5833400Y16509526D01*
X6100100Y16509526D01*
X6159851Y16515411D01*
X6217306Y16532840D01*
X6270257Y16561142D01*
X6316668Y16599232D01*
X6354758Y16645643D01*
X6383060Y16698594D01*
X6400489Y16756049D01*
X6406374Y16815800D01*
X6406374Y17984200D01*
X6400489Y18043951D01*
X6383060Y18101406D01*
X6354758Y18154357D01*
X6348485Y18162000D01*
X6354758Y18169643D01*
X6383060Y18222594D01*
X6400489Y18280049D01*
X6406374Y18339800D01*
X6406374Y19508200D01*
X6400489Y19567951D01*
X6383060Y19625406D01*
X6354758Y19678357D01*
X6316668Y19724768D01*
X6270257Y19762858D01*
X6217306Y19791160D01*
X6159851Y19808589D01*
X6100100Y19814474D01*
X5793400Y19814474D01*
X5793400Y20010040D01*
X6490400Y20010040D01*
X6490400Y19889960D01*
X6513826Y19772186D01*
X6559779Y19661246D01*
X6626492Y19561402D01*
X6668200Y19519694D01*
X6668201Y15030325D01*
X6626492Y14988616D01*
X6559779Y14888772D01*
X6513826Y14777832D01*
X6490400Y14660058D01*
X6490400Y14539978D01*
X6513826Y14422204D01*
X6559779Y14311264D01*
X6626492Y14211420D01*
X6711402Y14126510D01*
X6811246Y14059797D01*
X6922186Y14013844D01*
X7039960Y13990418D01*
X7160040Y13990418D01*
X7277814Y14013844D01*
X7388754Y14059797D01*
X7488598Y14126510D01*
X7573508Y14211420D01*
X7640221Y14311264D01*
X7686174Y14422204D01*
X7709600Y14539978D01*
X7709600Y14660058D01*
X7686174Y14777832D01*
X7640221Y14888772D01*
X7573508Y14988616D01*
X7531800Y15030324D01*
X7531800Y19519694D01*
X7573508Y19561402D01*
X7640221Y19661246D01*
X7686174Y19772186D01*
X7709600Y19889960D01*
X7709600Y20010040D01*
X7686174Y20127814D01*
X7640221Y20238754D01*
X7573508Y20338598D01*
X7488598Y20423508D01*
X7388754Y20490221D01*
X7277814Y20536174D01*
X7160040Y20559600D01*
X7039960Y20559600D01*
X6922186Y20536174D01*
X6811246Y20490221D01*
X6711402Y20423508D01*
X6626492Y20338598D01*
X6559779Y20238754D01*
X6513826Y20127814D01*
X6490400Y20010040D01*
X5793400Y20010040D01*
X5793400Y23693726D01*
X5910000Y23693726D01*
X5969751Y23699611D01*
X6027206Y23717040D01*
X6080157Y23745342D01*
X6126568Y23783432D01*
X6164658Y23829843D01*
X6192960Y23882794D01*
X6210389Y23940249D01*
X6216274Y24000000D01*
X6216274Y28000000D01*
X6210389Y28059751D01*
X6192960Y28117206D01*
X6191360Y28120200D01*
X6868640Y28120200D01*
X6867040Y28117206D01*
X6849611Y28059751D01*
X6843726Y28000000D01*
X6843726Y24000000D01*
X6849611Y23940249D01*
X6867040Y23882794D01*
X6895342Y23829843D01*
X6933432Y23783432D01*
X6979843Y23745342D01*
X7032794Y23717040D01*
X7090249Y23699611D01*
X7150000Y23693726D01*
X7368201Y23693726D01*
X7368201Y22021220D01*
X7366111Y22000000D01*
X7374448Y21915353D01*
X7399140Y21833958D01*
X7439235Y21758944D01*
X7493195Y21693194D01*
X7509674Y21679670D01*
X9618200Y19571143D01*
X9618201Y15180307D01*
X9576492Y15138598D01*
X9509779Y15038754D01*
X9463826Y14927814D01*
X9440400Y14810040D01*
X9440400Y14689960D01*
X9463826Y14572186D01*
X9509779Y14461246D01*
X9576492Y14361402D01*
X9661402Y14276492D01*
X9761246Y14209779D01*
X9872186Y14163826D01*
X9989960Y14140400D01*
X10110040Y14140400D01*
X10227814Y14163826D01*
X10338754Y14209779D01*
X10438598Y14276492D01*
X10523508Y14361402D01*
X10590221Y14461246D01*
X10636174Y14572186D01*
X10659600Y14689960D01*
X10659600Y14810040D01*
X10636174Y14927814D01*
X10590221Y15038754D01*
X10523508Y15138598D01*
X10481800Y15180306D01*
X10481800Y19728790D01*
X10483889Y19750000D01*
X10475552Y19834648D01*
X10450861Y19916042D01*
X10410766Y19991056D01*
X10384832Y20022656D01*
X10356806Y20056806D01*
X10340328Y20070329D01*
X8231800Y22178856D01*
X8231800Y23693726D01*
X8450000Y23693726D01*
X8509751Y23699611D01*
X8567206Y23717040D01*
X8620157Y23745342D01*
X8666568Y23783432D01*
X8704658Y23829843D01*
X8732960Y23882794D01*
X8750389Y23940249D01*
X8756274Y24000000D01*
X9383725Y24000000D01*
X9389610Y23940249D01*
X9407039Y23882794D01*
X9435342Y23829843D01*
X9473431Y23783431D01*
X9519843Y23745342D01*
X9572794Y23717039D01*
X9630249Y23699610D01*
X9690000Y23693725D01*
X10263750Y23695200D01*
X10339950Y23771400D01*
X10339950Y25999950D01*
X10340050Y25999950D01*
X10340050Y23771400D01*
X10416250Y23695200D01*
X10990000Y23693725D01*
X11049751Y23699610D01*
X11107206Y23717039D01*
X11160157Y23745342D01*
X11206569Y23783431D01*
X11244658Y23829843D01*
X11272961Y23882794D01*
X11290390Y23940249D01*
X11296275Y24000000D01*
X11294800Y25923750D01*
X11218600Y25999950D01*
X10340050Y25999950D01*
X10339950Y25999950D01*
X9461400Y25999950D01*
X9385200Y25923750D01*
X9383725Y24000000D01*
X8756274Y24000000D01*
X8756274Y28000000D01*
X8750389Y28059751D01*
X8732960Y28117206D01*
X8731360Y28120200D01*
X9408639Y28120200D01*
X9407039Y28117206D01*
X9389610Y28059751D01*
X9383725Y28000000D01*
X9385200Y26076250D01*
X9461400Y26000050D01*
X10339950Y26000050D01*
X10339950Y26020050D01*
X10340050Y26020050D01*
X10340050Y26000050D01*
X11218600Y26000050D01*
X11294800Y26076250D01*
X11296275Y28000000D01*
X11290390Y28059751D01*
X11272961Y28117206D01*
X11271361Y28120200D01*
X15142682Y28120200D01*
X15220200Y28042681D01*
X15220201Y21229977D01*
X14595261Y20428937D01*
X14592630Y20425139D01*
X14589677Y20421597D01*
X14572864Y20396967D01*
X13823610Y19201103D01*
X13820411Y19195288D01*
X13816769Y19189748D01*
X13802851Y19163373D01*
X13193790Y17890378D01*
X13191268Y17884235D01*
X13188279Y17878322D01*
X13177456Y17850589D01*
X13177436Y17850540D01*
X13177431Y17850524D01*
X12716397Y16516781D01*
X12714589Y16510401D01*
X12712285Y16504178D01*
X12704672Y16475401D01*
X12704657Y16475348D01*
X12704654Y16475331D01*
X12397569Y15097971D01*
X12396496Y15091430D01*
X12394910Y15084984D01*
X12390603Y15055523D01*
X12390595Y15055475D01*
X12390594Y15055459D01*
X12241402Y13652189D01*
X12241076Y13645559D01*
X12240231Y13638984D01*
X12239287Y13609234D01*
X12239284Y13609177D01*
X12239285Y13609159D01*
X12249909Y12198022D01*
X12250335Y12191403D01*
X12250240Y12184770D01*
X12252669Y12155108D01*
X12252673Y12155046D01*
X12252676Y12155027D01*
X12420200Y10777001D01*
X12420201Y1157319D01*
X11642682Y379800D01*
X3957318Y379800D01*
X3179800Y1157318D01*
X3179800Y10704230D01*
X3342341Y11922587D01*
X3342744Y11927892D01*
X3343596Y11933121D01*
X3345546Y11962879D01*
X3382337Y13369339D01*
X3382134Y13375975D01*
X3382452Y13382596D01*
X3381021Y13412383D01*
X3258360Y14813966D01*
X3257408Y14820533D01*
X3256974Y14827150D01*
X3252189Y14856520D01*
X3252180Y14856585D01*
X3252175Y14856605D01*
X2971643Y16235273D01*
X2969956Y16241682D01*
X2968774Y16248215D01*
X2960678Y16276917D01*
X2525874Y17614986D01*
X2523471Y17621165D01*
X2521558Y17627521D01*
X2510265Y17655122D01*
X1926781Y18935368D01*
X1923689Y18941244D01*
X1921073Y18947333D01*
X1906742Y18973455D01*
X1906729Y18973479D01*
X1906724Y18973487D01*
X1182068Y20179442D01*
X1178333Y20184927D01*
X1175042Y20190685D01*
X1157830Y20215038D01*
X379800Y21228930D01*
X379800Y28042682D01*
X457319Y28120200D01*
X4328640Y28120200D01*
X4327040Y28117206D01*
M02*
